<?xml version="1.0" encoding="UTF-8"?><svg xmlns="http://www.w3.org/2000/svg" xmlns:xlink="http://www.w3.org/1999/xlink" fill-opacity="1" color-rendering="auto" color-interpolation="auto" text-rendering="auto" stroke="black" stroke-linecap="square" width="315" stroke-miterlimit="10" shape-rendering="auto" stroke-opacity="1" fill="black" stroke-dasharray="none" font-weight="normal" stroke-width="1" height="127" font-family="'Dialog'" font-style="normal" stroke-linejoin="miter" font-size="12px" stroke-dashoffset="0" image-rendering="auto">
  <!--Generated by ySVG 2.6-->
  <defs id="genericDefs"/>
  <g>
    <defs id="defs1">
      <clipPath clipPathUnits="userSpaceOnUse" id="clipPath1">
        <path d="M0 0 L315 0 L315 127 L0 127 L0 0 Z"/>
      </clipPath>
      <clipPath clipPathUnits="userSpaceOnUse" id="clipPath2">
        <path d="M545 131 L860 131 L860 258 L545 258 L545 131 Z"/>
      </clipPath>
    </defs>
    <g fill="rgb(153,204,255)" text-rendering="geometricPrecision" shape-rendering="geometricPrecision" transform="matrix(1,0,0,1,-545,-131)" stroke="rgb(153,204,255)">
      <rect x="546" width="105" height="41" y="192" clip-path="url(#clipPath2)" stroke="none"/>
    </g>
    <g text-rendering="geometricPrecision" stroke-miterlimit="1.45" shape-rendering="geometricPrecision" transform="matrix(1,0,0,1,-545,-131)" stroke-linecap="butt">
      <rect fill="none" x="546" width="105" height="41" y="192" clip-path="url(#clipPath2)"/>
    </g>
    <g stroke-linecap="butt" font-size="16px" transform="matrix(1,0,0,1,-545,-131)" fill="rgb(51,102,255)" text-rendering="geometricPrecision" font-family="'Georgia'" shape-rendering="geometricPrecision" font-style="italic" stroke="rgb(51,102,255)" font-weight="bold" stroke-miterlimit="1.45">
      <text x="571.7539" xml:space="preserve" y="250.582" clip-path="url(#clipPath2)" stroke="none">length</text>
    </g>
    <g stroke-linecap="butt" font-size="16px" transform="matrix(1,0,0,1,-545,-131)" fill="red" text-rendering="geometricPrecision" font-family="'Arial'" shape-rendering="geometricPrecision" stroke="red" font-weight="bold" stroke-miterlimit="1.45">
      <text x="589.6016" xml:space="preserve" y="218.0469" clip-path="url(#clipPath2)" stroke="none">99</text>
    </g>
    <g fill="rgb(153,204,255)" text-rendering="geometricPrecision" shape-rendering="geometricPrecision" transform="matrix(1,0,0,1,-545,-131)" stroke="rgb(153,204,255)">
      <rect x="754" width="105" height="41" y="192" clip-path="url(#clipPath2)" stroke="none"/>
    </g>
    <g text-rendering="geometricPrecision" stroke-miterlimit="1.45" shape-rendering="geometricPrecision" transform="matrix(1,0,0,1,-545,-131)" stroke-linecap="butt">
      <rect fill="none" x="754" width="105" height="41" y="192" clip-path="url(#clipPath2)"/>
    </g>
    <g stroke-linecap="butt" font-size="16px" transform="matrix(1,0,0,1,-545,-131)" fill="rgb(51,102,255)" text-rendering="geometricPrecision" font-family="'Georgia'" shape-rendering="geometricPrecision" font-style="italic" stroke="rgb(51,102,255)" font-weight="bold" stroke-miterlimit="1.45">
      <text x="789.6797" xml:space="preserve" y="250.582" clip-path="url(#clipPath2)" stroke="none">side</text>
    </g>
    <g stroke-linecap="butt" font-size="16px" transform="matrix(1,0,0,1,-545,-131)" fill="red" text-rendering="geometricPrecision" font-family="'Arial'" shape-rendering="geometricPrecision" stroke="red" font-weight="bold" stroke-miterlimit="1.45">
      <text x="797.6016" xml:space="preserve" y="218.0469" clip-path="url(#clipPath2)" stroke="none">99</text>
    </g>
  </g>
</svg>
