<svg version="1.1" xmlns="http://www.w3.org/2000/svg" viewBox="0 0 286.0000457763672 293.9999542236328" width="286.0000457763672" height="293.9999542236328">
  <!-- svg-source:excalidraw -->
  
  <defs>
    <style class="style-fonts">
      @font-face {
        font-family: "Virgil";
        src: url("https://excalidraw.com/Virgil.woff2");
      }
      @font-face {
        font-family: "Cascadia";
        src: url("https://excalidraw.com/Cascadia.woff2");
      }
      @font-face {
        font-family: "Assistant";
        src: url("https://excalidraw.com/Assistant-Regular.woff2");
      }
    </style>
    
  </defs>
  <g stroke-linecap="round" transform="translate(10 10) rotate(0 66.66667175292969 22.666656494140625)"><path d="M11.33 0 C37.55 2.54, 61.59 -2.08, 122 0 C128.8 -1.58, 135.29 5.63, 133.33 11.33 C134.24 16.21, 134.75 30.17, 133.33 34 C134.17 41.22, 132.24 46.31, 122 45.33 C89.96 45.21, 68.33 47.54, 11.33 45.33 C3.84 44.6, -1.44 38.43, 0 34 C-1.14 25.38, 1.04 14.89, 0 11.33 C1.26 1.23, 3.3 0.51, 11.33 0" stroke="none" stroke-width="0" fill="#ffec99"></path><path d="M11.33 0 C42.58 0.61, 73.27 0.32, 122 0 M11.33 0 C41.59 0.15, 71.96 0.88, 122 0 M122 0 C127.96 0.08, 132.76 5.55, 133.33 11.33 M122 0 C131.8 -0.55, 133.06 3.94, 133.33 11.33 M133.33 11.33 C132.26 19.2, 134.48 27.59, 133.33 34 M133.33 11.33 C134.29 17.36, 132.6 24.16, 133.33 34 M133.33 34 C132.46 43.38, 128.27 44.97, 122 45.33 M133.33 34 C132.76 42.46, 127.44 44.49, 122 45.33 M122 45.33 C94.21 44.73, 64.03 46.56, 11.33 45.33 M122 45.33 C98.63 46.13, 76.05 45.79, 11.33 45.33 M11.33 45.33 C4.42 43.66, 1.18 43.13, 0 34 M11.33 45.33 C3.97 46.78, -0.07 42.39, 0 34 M0 34 C1.39 24.35, -0.4 18.48, 0 11.33 M0 34 C0.7 25.61, -0.53 19.2, 0 11.33 M0 11.33 C1.81 4.21, 3.05 0.63, 11.33 0 M0 11.33 C-1.25 1.73, 5.56 -2.18, 11.33 0" stroke="#1e1e1e" stroke-width="2" fill="none"></path></g><g transform="translate(39.73670196533203 20.166656494140625) rotate(0 36.929969787597656 12.5)"><text x="36.929969787597656" y="17.52" font-family="Virgil, Segoe UI Emoji" font-size="20px" fill="#1e1e1e" text-anchor="middle" style="white-space: pre;" direction="ltr" dominant-baseline="alphabetic">if (x&gt;0)</text></g><g stroke-linecap="round" transform="translate(79.33338928222656 129.00003051757812) rotate(0 98.33332824707031 22.666664123535156)"><path d="M11.33 0 C59.28 5.05, 111.31 0.18, 185.33 0 C190.21 -0.92, 197.29 3.65, 196.67 11.33 C196.69 16.48, 196.09 18.21, 196.67 34 C196.57 38.33, 189.36 48.72, 185.33 45.33 C123.15 42.22, 68.92 42.72, 11.33 45.33 C6.98 44.6, -2.37 38.81, 0 34 C2.68 26.03, -0.01 16.34, 0 11.33 C2.93 0.73, 0.3 -1.32, 11.33 0" stroke="none" stroke-width="0" fill="#b2f2bb"></path><path d="M11.33 0 C56.9 -0.05, 101.96 2.38, 185.33 0 M11.33 0 C51.8 0.75, 91.43 2.12, 185.33 0 M185.33 0 C194.13 0.79, 197.17 2.11, 196.67 11.33 M185.33 0 C191.4 0, 196.65 3.48, 196.67 11.33 M196.67 11.33 C195.34 18.85, 195.29 24.92, 196.67 34 M196.67 11.33 C197.5 18.12, 197.47 23.01, 196.67 34 M196.67 34 C196.96 40.48, 193.3 46.09, 185.33 45.33 M196.67 34 C194.41 39.59, 193.33 44.7, 185.33 45.33 M185.33 45.33 C123.37 46.87, 64.17 46.5, 11.33 45.33 M185.33 45.33 C118.62 44.03, 50.95 44.36, 11.33 45.33 M11.33 45.33 C1.84 46.92, 1.29 42.44, 0 34 M11.33 45.33 C1.72 43.26, -0.13 41.12, 0 34 M0 34 C0.27 26.59, 0.22 20.09, 0 11.33 M0 34 C0.24 28.77, -0.25 23.39, 0 11.33 M0 11.33 C1.45 3.28, 2.11 -0.09, 11.33 0 M0 11.33 C1.86 3.18, 4.99 0.73, 11.33 0" stroke="#1e1e1e" stroke-width="2" fill="none"></path></g><g transform="translate(101.8367919921875 139.16669464111328) rotate(0 75.82992553710938 12.5)"><text x="75.82992553710938" y="17.52" font-family="Virgil, Segoe UI Emoji" font-size="20px" fill="#1e1e1e" text-anchor="middle" style="white-space: pre;" direction="ltr" dominant-baseline="alphabetic">then-statement</text></g><g transform="translate(135.3333740234375 61.33329772949219) rotate(0 21.0999755859375 12.5)"><text x="0" y="17.52" font-family="Virgil, Segoe UI Emoji" font-size="20px" fill="#f08c00" text-anchor="start" style="white-space: pre;" direction="ltr" dominant-baseline="alphabetic">true</text></g><g stroke-linecap="round" transform="translate(11.666702270507812 244.3332977294922) rotate(0 86.66667175292969 19.833328247070312)"><path d="M9.92 0 C49.05 -0.6, 84.66 1.16, 163.42 0 C168.67 0.18, 171.43 4.03, 173.33 9.92 C170.49 14.46, 170.74 19.91, 173.33 29.75 C176.2 35.65, 170.01 38.86, 163.42 39.67 C124.2 40.56, 88.36 39.77, 9.92 39.67 C6.2 40.29, 2.5 33.6, 0 29.75 C1.48 22.61, -1.89 18.9, 0 9.92 C-0.52 1.25, 5.02 0.01, 9.92 0" stroke="none" stroke-width="0" fill="#ffec99"></path><path d="M9.92 0 C44.03 -1.73, 80.05 -1.59, 163.42 0 M9.92 0 C55.91 1.25, 99.51 1.14, 163.42 0 M163.42 0 C170.41 1.03, 173.41 2.17, 173.33 9.92 M163.42 0 C167.81 0.32, 173.39 1.75, 173.33 9.92 M173.33 9.92 C172.9 14.95, 173.9 19.7, 173.33 29.75 M173.33 9.92 C173.47 16.08, 174.06 22.24, 173.33 29.75 M173.33 29.75 C173.78 35.49, 168.21 40.66, 163.42 39.67 M173.33 29.75 C172.71 37.99, 168.19 39.48, 163.42 39.67 M163.42 39.67 C129.45 38.99, 100 40.62, 9.92 39.67 M163.42 39.67 C117.26 40.69, 68.6 39.51, 9.92 39.67 M9.92 39.67 C1.83 39.89, 1.94 38.2, 0 29.75 M9.92 39.67 C5.27 39.21, -1.67 36.15, 0 29.75 M0 29.75 C-1.19 24.48, 0.3 20.18, 0 9.92 M0 29.75 C0.8 25.89, 0.25 21.37, 0 9.92 M0 9.92 C-0.76 1.66, 4.72 -1.27, 9.92 0 M0 9.92 C-1.88 1.45, 5.15 1.47, 9.92 0" stroke="#1e1e1e" stroke-width="2" fill="none"></path></g><g transform="translate(21.823448181152344 251.6666259765625) rotate(0 76.50992584228516 12.5)"><text x="76.50992584228516" y="17.52" font-family="Virgil, Segoe UI Emoji" font-size="20px" fill="#1e1e1e" text-anchor="middle" style="white-space: pre;" direction="ltr" dominant-baseline="alphabetic">next-statement</text></g><g transform="translate(33.333343505859375 62.66661071777344) rotate(0 25.059974670410156 12.5)"><text x="0" y="17.52" font-family="Virgil, Segoe UI Emoji" font-size="20px" fill="#c2255c" text-anchor="start" style="white-space: pre;" direction="ltr" dominant-baseline="alphabetic">false</text></g><g stroke-linecap="round"><g transform="translate(131.27286225247974 180.6666717529298) rotate(0 -1.061959861319906 29.999999999999943)"><path d="M0.15 0.93 C0.04 11.12, -0.69 51.14, -0.98 60.95 M-1.23 0.37 C-1.37 10.26, -1.19 49.23, -1.33 59.32" stroke="#f08c00" stroke-width="2" fill="none"></path></g><g transform="translate(131.27286225247974 180.6666717529298) rotate(0 -1.061959861319906 29.999999999999943)"><path d="M-0.05 58.16 L-8.3 44.34 L6.69 44.12 L-1.93 59.1" stroke="none" stroke-width="0" fill="#f08c00" fill-rule="evenodd"></path><path d="M-1.33 59.32 C-1.86 57.04, -3.55 52.54, -7.62 45.7 M-1.33 59.32 C-2.95 55.34, -4.21 51.19, -7.62 45.7 M-7.62 45.7 C-4.96 44.44, -1.87 45.59, 5.06 45.75 M-7.62 45.7 C-4.01 45.79, -0.57 46.3, 5.06 45.75 M5.06 45.75 C2.72 50.39, 0.42 55.97, -1.33 59.32 M5.06 45.75 C2.53 49.85, 0.89 53.07, -1.33 59.32 M-1.33 59.32 C-1.33 59.32, -1.33 59.32, -1.33 59.32 M-1.33 59.32 C-1.33 59.32, -1.33 59.32, -1.33 59.32" stroke="#f08c00" stroke-width="2" fill="none"></path></g></g><mask></mask><g stroke-linecap="round"><g transform="translate(27.321473922875498 56.66664123535156) rotate(0 0.43129314491363857 92)"><path d="M-1.17 -0.2 C-0.88 30.59, 0.71 154.15, 1.03 184.85 M0.41 -1.35 C0.62 29.1, 0.25 152.06, 0.18 183.17" stroke="#c2255c" stroke-width="2" fill="none"></path></g><g transform="translate(27.321473922875498 56.66664123535156) rotate(0 0.43129314491363857 92)"><path d="M-0.68 181.94 L-5.28 169.39 L5.35 168.7 L-1.05 184.36" stroke="none" stroke-width="0" fill="#c2255c" fill-rule="evenodd"></path><path d="M0.18 183.17 C-1.59 180.06, -1.8 176.51, -6.13 169.56 M0.18 183.17 C-1.61 179.68, -3.38 174.67, -6.13 169.56 M-6.13 169.56 C-3.23 168.66, -1.27 169.16, 6.55 169.59 M-6.13 169.56 C-3.47 169.65, 0.47 169.27, 6.55 169.59 M6.55 169.59 C5.67 173.45, 3.71 175.04, 0.18 183.17 M6.55 169.59 C4.2 173.88, 3.48 177.66, 0.18 183.17 M0.18 183.17 C0.18 183.17, 0.18 183.17, 0.18 183.17 M0.18 183.17 C0.18 183.17, 0.18 183.17, 0.18 183.17" stroke="#c2255c" stroke-width="2" fill="none"></path></g></g><mask></mask><g stroke-linecap="round"><g transform="translate(129.3333740234375 58.66661071777344) rotate(0 0.333343505859375 34.333343505859375)"><path d="M-0.53 -1.05 C-0.24 10.74, 1.06 58.02, 1.22 69.62 M1.4 1.02 C1.62 12.58, 0.86 56.53, 0.56 67.99" stroke="#f08c00" stroke-width="2" fill="none"></path></g><g transform="translate(129.3333740234375 58.66661071777344) rotate(0 0.333343505859375 34.333343505859375)"><path d="M-0.55 66.46 L-5.92 53.59 L9.08 53.34 L0.27 66.5" stroke="none" stroke-width="0" fill="#f08c00" fill-rule="evenodd"></path><path d="M0.56 67.99 C-2.18 65.12, -1.24 60.64, -5.5 54.27 M0.56 67.99 C-1.46 63.69, -2.49 59.36, -5.5 54.27 M-5.5 54.27 C-2.89 53.51, -0.54 54.46, 7.18 54.53 M-5.5 54.27 C-1.9 54.42, 2.31 53.95, 7.18 54.53 M7.18 54.53 C3.74 58.19, 2.29 64.32, 0.56 67.99 M7.18 54.53 C5.45 58.14, 3.58 61.21, 0.56 67.99 M0.56 67.99 C0.56 67.99, 0.56 67.99, 0.56 67.99 M0.56 67.99 C0.56 67.99, 0.56 67.99, 0.56 67.99" stroke="#f08c00" stroke-width="2" fill="none"></path></g></g><mask></mask></svg>