<?xml version="1.0" encoding="UTF-8"?><svg xmlns="http://www.w3.org/2000/svg" xmlns:xlink="http://www.w3.org/1999/xlink" fill-opacity="1" color-rendering="auto" color-interpolation="auto" text-rendering="auto" stroke="black" stroke-linecap="square" width="399" stroke-miterlimit="10" shape-rendering="auto" stroke-opacity="1" fill="black" stroke-dasharray="none" font-weight="normal" stroke-width="1" height="137" font-family="'Dialog'" font-style="normal" stroke-linejoin="miter" font-size="12px" stroke-dashoffset="0" image-rendering="auto">
  <!--Generated by ySVG 2.6-->
  <defs id="genericDefs"/>
  <g>
    <defs id="defs1">
      <clipPath clipPathUnits="userSpaceOnUse" id="clipPath1">
        <path d="M0 0 L399 0 L399 137 L0 137 L0 0 Z"/>
      </clipPath>
      <clipPath clipPathUnits="userSpaceOnUse" id="clipPath2">
        <path d="M431 125 L830 125 L830 262 L431 262 L431 125 Z"/>
      </clipPath>
    </defs>
    <g fill="rgb(153,204,255)" text-rendering="geometricPrecision" shape-rendering="geometricPrecision" transform="matrix(1,0,0,1,-431,-125)" stroke="rgb(153,204,255)">
      <rect x="546" width="105" height="41" y="192" clip-path="url(#clipPath2)" stroke="none"/>
    </g>
    <g text-rendering="geometricPrecision" stroke-miterlimit="1.45" shape-rendering="geometricPrecision" transform="matrix(1,0,0,1,-431,-125)" stroke-linecap="butt">
      <rect fill="none" x="546" width="105" height="41" y="192" clip-path="url(#clipPath2)"/>
    </g>
    <g stroke-linecap="butt" font-size="16px" transform="matrix(1,0,0,1,-431,-125)" fill="rgb(51,153,102)" text-rendering="geometricPrecision" font-family="'Georgia'" shape-rendering="geometricPrecision" font-style="italic" stroke="rgb(51,153,102)" font-weight="bold" stroke-miterlimit="1.45">
      <text x="441.2266" xml:space="preserve" y="147.082" clip-path="url(#clipPath2)" stroke="none">object</text>
      <text fill="blue" x="571.7539" xml:space="preserve" y="250.582" clip-path="url(#clipPath2)" stroke="none">length</text>
      <text fill="blue" x="581.6797" xml:space="preserve" y="185.582" clip-path="url(#clipPath2)" stroke="none">side</text>
      <text x="675.5469" xml:space="preserve" y="149.582" clip-path="url(#clipPath2)" stroke="none">value</text>
    </g>
    <g stroke-linecap="butt" font-size="16px" transform="matrix(1,0,0,1,-431,-125)" fill="red" text-rendering="geometricPrecision" font-family="'Arial'" shape-rendering="geometricPrecision" stroke="red" font-weight="bold" stroke-miterlimit="1.45">
      <text x="589.6016" xml:space="preserve" y="218.0469" clip-path="url(#clipPath2)" stroke="none">99</text>
    </g>
    <g stroke-linecap="butt" transform="matrix(1,0,0,1,-431,-125)" fill="lime" text-rendering="geometricPrecision" shape-rendering="geometricPrecision" stroke="lime" stroke-miterlimit="1.45">
      <path fill="none" d="M484.162 151 L553.3419 188.2104" clip-path="url(#clipPath2)"/>
      <path d="M560.3873 192 L552.1876 181.9122 L552.4612 187.7367 L547.4506 190.719 Z" clip-path="url(#clipPath2)" stroke="none"/>
      <path fill="none" d="M680.9818 156 L614.6 201.4715" clip-path="url(#clipPath2)"/>
      <path d="M608 205.9925 L620.7257 203.336 L615.425 200.9064 L615.0744 195.086 Z" clip-path="url(#clipPath2)" stroke="none"/>
    </g>
  </g>
</svg>
