<?xml version="1.0" encoding="UTF-8"?><svg xmlns="http://www.w3.org/2000/svg" xmlns:xlink="http://www.w3.org/1999/xlink" fill-opacity="1" color-rendering="auto" color-interpolation="auto" text-rendering="auto" stroke="black" stroke-linecap="square" width="351" stroke-miterlimit="10" shape-rendering="auto" stroke-opacity="1" fill="black" stroke-dasharray="none" font-weight="normal" stroke-width="1" height="137" font-family="'Dialog'" font-style="normal" stroke-linejoin="miter" font-size="12px" stroke-dashoffset="0" image-rendering="auto">
  <!--Generated by ySVG 2.6-->
  <defs id="genericDefs"/>
  <g>
    <defs id="defs1">
      <clipPath clipPathUnits="userSpaceOnUse" id="clipPath1">
        <path d="M0 0 L351 0 L351 137 L0 137 L0 0 Z"/>
      </clipPath>
      <clipPath clipPathUnits="userSpaceOnUse" id="clipPath2">
        <path d="M420 95 L771 95 L771 232 L420 232 L420 95 Z"/>
      </clipPath>
    </defs>
    <g fill="rgb(153,204,255)" text-rendering="geometricPrecision" shape-rendering="geometricPrecision" transform="matrix(1,0,0,1,-420,-95)" stroke="rgb(153,204,255)">
      <rect x="546" width="105" height="41" y="160" clip-path="url(#clipPath2)" stroke="none"/>
    </g>
    <g text-rendering="geometricPrecision" stroke-miterlimit="1.45" shape-rendering="geometricPrecision" transform="matrix(1,0,0,1,-420,-95)" stroke-linecap="butt">
      <rect fill="none" x="546" width="105" height="41" y="160" clip-path="url(#clipPath2)"/>
    </g>
    <g stroke-linecap="butt" font-size="16px" transform="matrix(1,0,0,1,-420,-95)" fill="blue" text-rendering="geometricPrecision" font-family="'Arial'" shape-rendering="geometricPrecision" stroke="blue" font-weight="bold" stroke-miterlimit="1.45">
      <text x="574.5039" xml:space="preserve" y="221.4844" clip-path="url(#clipPath2)" stroke="none">length</text>
    </g>
    <g stroke-linecap="butt" font-size="16px" transform="matrix(1,0,0,1,-420,-95)" fill="rgb(51,153,102)" text-rendering="geometricPrecision" font-family="'Georgia'" shape-rendering="geometricPrecision" font-style="italic" stroke="rgb(51,153,102)" font-weight="bold" stroke-miterlimit="1.45">
      <text x="427.6211" xml:space="preserve" y="116.9922" clip-path="url(#clipPath2)" stroke="none">(lvalue of length)</text>
      <text x="474.2266" xml:space="preserve" y="135.1719" clip-path="url(#clipPath2)" stroke="none">object</text>
    </g>
    <g stroke-linecap="butt" font-size="14px" transform="matrix(1,0,0,1,-420,-95)" fill="rgb(153,51,0)" text-rendering="geometricPrecision" font-family="'Arial'" shape-rendering="geometricPrecision" stroke="rgb(153,51,0)" font-weight="bold" stroke-miterlimit="1.45">
      <text x="590.7139" xml:space="preserve" y="185.3535" clip-path="url(#clipPath2)" stroke="none">99</text>
    </g>
    <g stroke-linecap="butt" font-size="16px" transform="matrix(1,0,0,1,-420,-95)" fill="rgb(51,153,102)" text-rendering="geometricPrecision" font-family="'Georgia'" shape-rendering="geometricPrecision" font-style="italic" stroke="rgb(51,153,102)" font-weight="bold" stroke-miterlimit="1.45">
      <text x="617.1875" xml:space="preserve" y="116.9922" clip-path="url(#clipPath2)" stroke="none">(rvalue of length)</text>
      <text x="667.5469" xml:space="preserve" y="135.1719" clip-path="url(#clipPath2)" stroke="none">value</text>
    </g>
    <g stroke-linecap="butt" transform="matrix(1,0,0,1,-420,-95)" fill="rgb(255,102,0)" text-rendering="geometricPrecision" shape-rendering="geometricPrecision" stroke="rgb(255,102,0)" stroke-width="3" stroke-miterlimit="1.45">
      <path fill="none" d="M533.325 141 L556.123 154.817" clip-path="url(#clipPath2)"/>
      <path d="M564.675 160 L555.0864 146.8805 L555.054 154.1691 L548.6077 157.5704 Z" clip-path="url(#clipPath2)" stroke="none"/>
      <path fill="none" d="M659.0667 141 L616.3761 168.8417" clip-path="url(#clipPath2)"/>
      <path d="M608 174.3044 L623.9783 171.3454 L617.4231 168.1588 L617.15 160.8753 Z" clip-path="url(#clipPath2)" stroke="none"/>
    </g>
  </g>
</svg>
